<svg id="svg" xmlns="http://www.w3.org/2000/svg" xmlns:xlink="http://www.w3.org/1999/xlink" width="400" height="421.978021978022" viewBox="0, 0, 400,421.978021978022"><g id="svgg"><path id="path0" d="M191.209 18.893 C 43.413 28.726,-39.318 195.489,42.484 318.681 C 122.703 439.490,302.031 432.503,372.852 305.808 C 447.162 172.873,343.274 8.777,191.209 18.893 M223.862 48.735 C 233.594 49.864,243.659 52.019,252.536 54.874 L 259.027 56.962 252.747 63.205 C 243.025 72.871,232.535 81.160,211.403 95.877 L 203.968 101.055 198.530 97.376 C 179.721 84.652,165.149 73.327,155.838 64.199 L 148.509 57.012 152.904 55.487 C 173.833 48.227,198.904 45.842,223.862 48.735 M125.785 74.568 C 135.401 86.058,152.755 100.880,173.756 115.541 C 178.428 118.803,178.907 117.882,168.761 125.128 C 148.730 139.435,129.847 156.614,120.972 168.603 C 102.261 193.878,100.444 222.479,115.920 248.080 C 122.249 258.550,139.030 276.948,149.568 284.971 L 153.127 287.680 164.947 279.385 C 171.447 274.822,176.979 270.903,177.238 270.677 C 177.498 270.450,173.870 267.182,169.176 263.413 C 119.834 223.800,122.598 195.336,179.906 152.899 C 189.782 145.586,191.195 144.603,219.466 125.386 C 253.311 102.380,275.939 83.618,283.830 72.018 C 285.875 69.012,285.779 68.992,293.347 74.002 C 392.801 139.843,393.457 282.659,294.609 348.974 L 285.608 355.013 283.955 352.860 C 275.981 342.475,258.987 327.423,238.543 312.639 L 229.615 306.182 231.134 305.084 C 284.169 266.724,302.140 243.218,302.102 212.259 C 302.072 188.514,290.797 168.615,263.814 144.690 C 254.166 136.136,256.506 136.010,242.193 145.858 L 229.899 154.318 236.925 159.891 C 278.520 192.878,283.765 217.567,255.559 247.606 C 243.839 260.088,229.581 271.105,192.151 296.601 C 156.233 321.066,134.900 338.530,123.851 352.511 L 121.929 354.943 113.808 349.573 C 14.438 283.868,14.302 141.023,113.547 74.627 C 122.378 68.719,120.896 68.726,125.785 74.568 M209.141 327.265 C 232.417 343.433,259.470 365.789,257.637 367.342 C 256.886 367.979,244.704 371.474,238.104 372.947 C 212.742 378.605,180.901 377.261,156.382 369.497 L 149.271 367.245 153.599 362.849 C 163.758 352.532,200.494 324.132,203.803 324.038 C 204.168 324.027,206.570 325.480,209.141 327.265 " stroke="none" fill="#1b6dc1" fill-rule="evenodd"></path></g></svg>